<mxfile host="app.diagrams.net" modified="2022-10-12T11:53:27.554Z" agent="5.0 (Macintosh; Intel Mac OS X 10_15_7) AppleWebKit/537.36 (KHTML, like Gecko) Chrome/105.0.0.0 Safari/537.36" etag="6b-W01mr6auy0vdPV3Xq" version="20.4.0" type="github">
  <diagram id="qCHrSpZCWTZ6lSKhrSTq" name="Page-1">
    <mxGraphModel dx="1298" dy="734" grid="1" gridSize="10" guides="1" tooltips="1" connect="1" arrows="1" fold="1" page="1" pageScale="1" pageWidth="850" pageHeight="1100" math="0" shadow="0">
      <root>
        <mxCell id="0" />
        <mxCell id="1" parent="0" />
        <mxCell id="o0SxqH75dP0WfPBWPZfA-1" value="Any" style="swimlane;fontStyle=1;align=center;verticalAlign=top;childLayout=stackLayout;horizontal=1;startSize=26;horizontalStack=0;resizeParent=1;resizeParentMax=0;resizeLast=0;collapsible=1;marginBottom=0;" vertex="1" parent="1">
          <mxGeometry x="120" y="271" width="200" height="90" as="geometry" />
        </mxCell>
        <mxCell id="o0SxqH75dP0WfPBWPZfA-2" value="+ content: HolderBase*" style="text;strokeColor=none;fillColor=none;align=left;verticalAlign=top;spacingLeft=4;spacingRight=4;overflow=hidden;rotatable=0;points=[[0,0.5],[1,0.5]];portConstraint=eastwest;" vertex="1" parent="o0SxqH75dP0WfPBWPZfA-1">
          <mxGeometry y="26" width="200" height="26" as="geometry" />
        </mxCell>
        <mxCell id="o0SxqH75dP0WfPBWPZfA-17" value="+ template&lt;typename ValueType&gt;&#xa;operator=(ValueType&amp;&amp;): Any&amp;" style="text;strokeColor=default;fillColor=none;align=left;verticalAlign=top;spacingLeft=4;spacingRight=4;overflow=hidden;rotatable=0;points=[[0,0.5],[1,0.5]];portConstraint=eastwest;" vertex="1" parent="o0SxqH75dP0WfPBWPZfA-1">
          <mxGeometry y="52" width="200" height="38" as="geometry" />
        </mxCell>
        <mxCell id="o0SxqH75dP0WfPBWPZfA-5" value="1" style="endArrow=open;html=1;endSize=12;startArrow=diamondThin;startSize=14;startFill=1;edgeStyle=orthogonalEdgeStyle;align=left;verticalAlign=bottom;rounded=0;exitX=1;exitY=0.25;exitDx=0;exitDy=0;entryX=0;entryY=0.5;entryDx=0;entryDy=0;" edge="1" parent="1" source="o0SxqH75dP0WfPBWPZfA-1" target="o0SxqH75dP0WfPBWPZfA-6">
          <mxGeometry x="-1" y="3" relative="1" as="geometry">
            <mxPoint x="340" y="380" as="sourcePoint" />
            <mxPoint x="480" y="308" as="targetPoint" />
          </mxGeometry>
        </mxCell>
        <mxCell id="o0SxqH75dP0WfPBWPZfA-6" value="«interface»&lt;br&gt;&lt;b&gt;HolderBase&lt;/b&gt;" style="html=1;" vertex="1" parent="1">
          <mxGeometry x="400" y="268" width="110" height="50" as="geometry" />
        </mxCell>
        <mxCell id="o0SxqH75dP0WfPBWPZfA-11" value="Holder&lt;ValueType&gt;" style="swimlane;fontStyle=1;align=center;verticalAlign=top;childLayout=stackLayout;horizontal=1;startSize=26;horizontalStack=0;resizeParent=1;resizeParentMax=0;resizeLast=0;collapsible=1;marginBottom=0;" vertex="1" parent="1">
          <mxGeometry x="610" y="266" width="160" height="112" as="geometry" />
        </mxCell>
        <mxCell id="o0SxqH75dP0WfPBWPZfA-12" value="+ value: ValueType" style="text;strokeColor=none;fillColor=none;align=left;verticalAlign=top;spacingLeft=4;spacingRight=4;overflow=hidden;rotatable=0;points=[[0,0.5],[1,0.5]];portConstraint=eastwest;" vertex="1" parent="o0SxqH75dP0WfPBWPZfA-11">
          <mxGeometry y="26" width="160" height="26" as="geometry" />
        </mxCell>
        <mxCell id="o0SxqH75dP0WfPBWPZfA-13" value="" style="line;strokeWidth=1;fillColor=none;align=left;verticalAlign=middle;spacingTop=-1;spacingLeft=3;spacingRight=3;rotatable=0;labelPosition=right;points=[];portConstraint=eastwest;strokeColor=inherit;" vertex="1" parent="o0SxqH75dP0WfPBWPZfA-11">
          <mxGeometry y="52" width="160" height="8" as="geometry" />
        </mxCell>
        <mxCell id="o0SxqH75dP0WfPBWPZfA-14" value="+ clone(): HolderBase" style="text;strokeColor=none;fillColor=none;align=left;verticalAlign=top;spacingLeft=4;spacingRight=4;overflow=hidden;rotatable=0;points=[[0,0.5],[1,0.5]];portConstraint=eastwest;" vertex="1" parent="o0SxqH75dP0WfPBWPZfA-11">
          <mxGeometry y="60" width="160" height="26" as="geometry" />
        </mxCell>
        <mxCell id="o0SxqH75dP0WfPBWPZfA-16" value="+ type(): std::type_info" style="text;strokeColor=none;fillColor=none;align=left;verticalAlign=top;spacingLeft=4;spacingRight=4;overflow=hidden;rotatable=0;points=[[0,0.5],[1,0.5]];portConstraint=eastwest;" vertex="1" parent="o0SxqH75dP0WfPBWPZfA-11">
          <mxGeometry y="86" width="160" height="26" as="geometry" />
        </mxCell>
        <mxCell id="o0SxqH75dP0WfPBWPZfA-18" value="" style="endArrow=block;dashed=1;endFill=0;endSize=12;html=1;rounded=0;exitX=0;exitY=0.25;exitDx=0;exitDy=0;entryX=1;entryY=0.5;entryDx=0;entryDy=0;" edge="1" parent="1" source="o0SxqH75dP0WfPBWPZfA-11" target="o0SxqH75dP0WfPBWPZfA-6">
          <mxGeometry width="160" relative="1" as="geometry">
            <mxPoint x="340" y="380" as="sourcePoint" />
            <mxPoint x="500" y="380" as="targetPoint" />
          </mxGeometry>
        </mxCell>
      </root>
    </mxGraphModel>
  </diagram>
</mxfile>
